<?xml version="1.0" encoding="UTF-8"?>
<!DOCTYPE svg PUBLIC "-//W3C//DTD SVG 1.1//EN" "http://www.w3.org/Graphics/SVG/1.1/DTD/svg11.dtd">
<!-- Creator: CorelDRAW X6 -->
<svg xmlns="http://www.w3.org/2000/svg" xml:space="preserve" width="7.86173in" height="1.72024in" version="1.1" style="shape-rendering:geometricPrecision; text-rendering:geometricPrecision; image-rendering:optimizeQuality; fill-rule:evenodd; clip-rule:evenodd"
viewBox="0 0 7862 1720"
 xmlns:xlink="http://www.w3.org/1999/xlink">
 <defs>
  <style type="text/css">
   <![CDATA[
    .fil1 {fill:#1D1D1D;fill-rule:nonzero}
    .fil0 {fill:#535353;fill-rule:nonzero}
   ]]>
  </style>
 </defs>
 <g id="__x0023_Layer_x0020_1">
  <metadata id="CorelCorpID_0Corel-Layer"/>
  <g id="_330832976">
   <path class="fil0" d="M1933 657c42,-27 87,-47 133,-58l0 -135c9,-7 31,-16 66,-29 35,-13 74,-23 117,-31l57 0 0 212 220 0 0 108 -220 0 0 429c0,69 9,116 26,142 17,26 46,40 86,40 20,0 42,-1 67,-4 25,-3 48,-8 69,-16l12 55c-10,10 -25,21 -44,32 -19,11 -42,22 -67,32 -25,10 -52,18 -82,25 -29,7 -60,10 -92,10 -72,0 -126,-19 -162,-56 -36,-38 -53,-98 -53,-182l0 -506 -133 0 0 -67z"/>
   <path class="fil0" d="M3629 1448l-441 0 0 -63c13,-8 27,-15 42,-22 14,-7 31,-13 50,-18l0 -337c0,-96 -9,-166 -27,-211 -18,-45 -54,-68 -107,-68 -44,0 -82,15 -113,46 -31,31 -53,66 -67,106l0 464c18,4 34,9 47,15 14,6 29,14 44,25l0 63 -441 0 0 -63c34,-18 71,-31 110,-40l0 -1012 -127 -13 0 -63c17,-7 38,-13 64,-20 26,-7 54,-12 82,-17 29,-5 58,-9 87,-13 29,-4 54,-7 77,-9l57 0 0 588 2 0c11,-26 26,-50 45,-72 19,-23 40,-43 64,-60 24,-17 50,-31 77,-41 28,-10 57,-15 88,-15 44,0 84,5 119,16 35,11 64,29 87,56 23,27 41,63 53,108 12,45 18,102 18,171l0 399c19,4 38,9 57,15 19,6 37,14 53,25l0 63z"/>
   <path class="fil0" d="M4380 1308c-9,19 -23,38 -42,57 -19,19 -43,37 -72,52 -28,15 -61,27 -98,37 -37,9 -77,14 -121,14 -69,0 -130,-10 -183,-31 -53,-21 -98,-50 -133,-88 -36,-38 -62,-84 -81,-137 -18,-53 -27,-113 -27,-180 0,-142 37,-250 112,-325 74,-74 178,-112 310,-112 57,0 110,8 159,23 49,16 90,41 123,77 33,36 55,82 68,140 13,58 12,128 -2,212l-511 0c1,88 24,158 67,210 44,52 109,78 194,78 37,0 75,-6 114,-17 39,-11 70,-25 92,-43l32 33zm-344 -618l0 0c-22,0 -42,4 -59,12 -17,8 -32,22 -45,42 -13,21 -23,48 -31,83 -8,35 -13,79 -17,132l266 0c8,-87 3,-153 -15,-200 -18,-47 -51,-70 -101,-70z"/>
   <path class="fil1" d="M4498 332l-127 -13 0 -63c17,-7 39,-13 66,-20 27,-7 56,-12 85,-17 29,-5 58,-9 87,-13 28,-4 52,-7 72,-9l57 0 0 576 3 0c22,-55 56,-99 102,-130 46,-31 99,-47 162,-47 98,0 174,34 228,102 54,68 82,170 82,308 0,152 -40,267 -121,343 -81,77 -198,115 -354,115 -28,0 -59,-2 -93,-6 -34,-4 -68,-9 -100,-14 -32,-6 -62,-12 -89,-20 -27,-8 -47,-16 -59,-23l0 -1067zm398 396l0 0c-42,0 -76,15 -102,46 -26,31 -44,69 -57,116l0 441c16,11 35,20 57,27 23,7 49,10 77,10 63,0 110,-28 139,-85 29,-57 44,-145 44,-266 0,-88 -12,-158 -36,-210 -24,-52 -65,-78 -124,-78z"/>
   <path class="fil1" d="M5365 1032c0,-68 10,-129 31,-182 21,-54 50,-100 88,-137 38,-38 85,-67 139,-87 54,-20 116,-30 185,-30 78,0 145,11 201,32 56,22 102,52 138,90 36,38 62,84 79,138 17,54 25,112 25,176 0,68 -10,129 -30,182 -20,54 -49,100 -87,137 -38,38 -85,67 -140,87 -55,20 -117,30 -186,30 -75,0 -141,-11 -197,-32 -56,-22 -102,-52 -138,-90 -37,-38 -64,-84 -82,-138 -18,-54 -27,-112 -27,-176zm258 0l0 0c0,50 3,96 9,137 6,42 17,77 32,106 16,29 37,51 63,67 27,16 61,24 103,24 24,0 47,-6 67,-17 20,-12 37,-31 52,-57 14,-26 25,-61 32,-103 7,-43 11,-95 11,-157 0,-51 -3,-97 -9,-138 -6,-41 -17,-76 -32,-105 -15,-29 -35,-51 -61,-67 -26,-16 -58,-24 -97,-24 -29,0 -54,6 -75,17 -21,12 -39,31 -53,57 -14,26 -25,61 -32,103 -7,43 -11,95 -11,157z"/>
   <path class="fil1" d="M7033 1207c0,24 0,46 1,63 1,18 2,37 4,57l115 17 0 58c-13,7 -31,13 -54,20 -23,7 -47,13 -72,19 -25,6 -50,11 -74,15 -24,4 -46,7 -65,9l-57 0c-11,-26 -18,-51 -20,-77 -2,-26 -4,-57 -5,-93l-8 0c-6,22 -15,44 -28,64 -13,21 -30,39 -51,55 -21,16 -45,29 -72,39 -28,10 -59,15 -93,15 -37,0 -71,-6 -102,-17 -31,-11 -58,-27 -82,-47 -23,-20 -42,-44 -55,-72 -13,-28 -20,-60 -20,-96 0,-50 9,-91 28,-123 19,-32 49,-59 89,-79 41,-21 93,-36 157,-46 64,-10 141,-17 232,-22 9,-95 5,-165 -12,-210 -17,-44 -53,-67 -108,-67 -34,0 -66,6 -95,17l-78 200 -73 0c-9,-13 -18,-29 -26,-46 -8,-17 -16,-36 -23,-55 -7,-19 -13,-39 -18,-59 -5,-20 -9,-39 -11,-58 42,-29 97,-52 163,-68 67,-17 137,-25 212,-25 63,0 115,7 155,21 40,14 71,33 94,57 23,24 39,52 47,84 9,32 13,67 13,103 0,67 -1,127 -4,181 -3,54 -4,109 -4,166zm-375 128l0 0c23,0 43,-4 60,-13 17,-9 31,-19 42,-32 12,-12 21,-26 27,-40 6,-14 11,-27 14,-38l0 -167c-52,1 -95,4 -128,10 -33,6 -59,15 -78,27 -19,13 -32,29 -39,48 -7,19 -11,43 -11,71 0,42 10,75 30,98 20,23 48,35 83,35z"/>
   <path class="fil1" d="M7634 807c-13,7 -29,18 -47,33 -18,16 -34,41 -48,77l0 428c22,2 44,6 67,13 22,6 44,15 67,28l0 63 -483 0 0 -63c20,-11 39,-20 57,-25 18,-6 36,-11 53,-15l0 -613 -110 -13 0 -63c18,-8 40,-15 66,-22 26,-7 53,-13 81,-18 28,-5 55,-9 81,-12 26,-3 48,-6 66,-8l57 0 0 222 7 0c9,-24 22,-50 39,-77 17,-27 37,-51 61,-73 23,-22 49,-40 77,-53 28,-13 57,-19 87,-18 12,16 23,37 32,66 9,28 16,55 22,81l0 65 -228 0z"/>
  </g>
  <g id="_330833792">
   <g>
    <path class="fil1" d="M910 1372c-10,-3 -22,2 -27,11 -6,9 -4,21 3,29 16,17 26,36 27,42 -2,1 -8,2 -18,2 -2,0 -5,-1 -7,-1l-1 0c-8,0 -15,4 -19,10 -5,6 -6,15 -4,23 2,7 22,65 67,65 25,0 56,-11 66,-61l0 -2c14,-72 -50,-109 -86,-119z"/>
    <path class="fil1" d="M785 1459l-2 0c-2,0 -4,1 -6,1 -1,0 -1,1 -2,1 -11,0 -16,-2 -18,-3 1,-6 11,-27 27,-45 8,-8 9,-20 3,-29 -5,-9 -17,-14 -27,-11 -36,10 -100,47 -86,119l0 2c10,51 41,61 66,61 45,0 65,-58 67,-64 2,-8 1,-16 -4,-22 -4,-6 -11,-9 -19,-9z"/>
   </g>
   <path class="fil1" d="M1090 607c-39,0 -71,32 -71,71 0,39 32,71 71,71 39,0 71,-32 71,-71 0,-39 -32,-71 -71,-71z"/>
   <path class="fil1" d="M1274 616l-1 -2c-7,-14 -15,-27 -25,-39 -13,-16 -25,-28 -37,-36 -30,-22 -64,-33 -100,-35 -45,-2 -91,13 -131,42 -8,6 -16,13 -23,19l-1 1c-5,5 -13,13 -12,25 1,12 11,21 23,21 4,0 8,-1 12,-3 8,-4 17,-8 25,-11 22,-9 41,-19 60,-23 9,-2 21,-8 32,-8l2 0c28,0 51,11 70,21 14,8 26,18 37,27 7,6 15,13 21,20l2 3c5,6 14,15 25,15 6,0 13,-3 17,-7 4,-5 7,-11 6,-17 0,-6 -3,-10 -5,-14z"/>
   <path class="fil1" d="M581 607c-39,0 -71,32 -71,71 0,39 32,71 71,71 39,0 71,-32 71,-71 0,-39 -32,-71 -71,-71z"/>
   <path class="fil1" d="M727 591c1,-12 -7,-20 -12,-25l-1 -1c-7,-7 -15,-13 -23,-19 -40,-29 -86,-44 -131,-42 -36,1 -69,13 -99,35 -13,9 -25,20 -37,36 -10,12 -18,25 -25,39l-1 2c-2,3 -4,8 -5,14 0,6 2,13 6,18 4,5 11,7 17,7 11,0 20,-9 25,-15l2 -2c6,-7 14,-13 22,-19 11,-9 23,-21 37,-29 19,-11 43,-21 70,-21l2 0c11,0 23,6 32,8 19,3 38,12 60,21 8,3 17,8 25,12 4,2 8,3 12,3 13,0 22,-8 23,-20z"/>
   <path class="fil1" d="M708 1082c-18,7 -26,28 -19,46 7,18 28,26 46,19 56,-23 148,-23 201,0 5,2 9,3 14,3 13,0 26,-8 32,-21 8,-18 0,-38 -18,-46 -70,-31 -183,-31 -256,-1z"/>
   <path class="fil1" d="M1658 179c-2,-7 -3,-14 -4,-18 -2,-18 -9,-71 -57,-103 -29,-19 -58,-19 -78,-19 -5,0 -9,0 -13,0 -25,-2 -55,10 -118,37 -15,7 -30,13 -41,18 -51,20 -196,120 -221,143 -2,1 -14,3 -32,-2 0,0 -1,0 -1,0 0,0 0,0 0,0 -3,-1 -6,-2 -9,-2 -8,-2 -10,-5 -12,-8 -12,-20 -6,-68 2,-95 6,-19 0,-41 -16,-54 -16,-13 -38,-15 -56,-5 -25,14 -46,28 -62,43 5,-21 14,-36 15,-37 13,-20 10,-45 -6,-62 -16,-17 -42,-20 -62,-7 -72,45 -118,91 -146,131 1,-18 -7,-35 -22,-45 -15,-10 -35,-11 -52,-2 -64,35 -104,107 -123,146 -4,0 -8,0 -9,-2 -26,-24 -167,-123 -216,-142 -12,-5 -27,-11 -42,-18 -55,-25 -88,-38 -114,-36 -4,0 -9,0 -13,0 -19,0 -48,0 -77,19 -42,28 -52,72 -56,103 -1,5 -2,11 -4,18 -7,30 -17,76 -11,161 8,111 26,193 40,229 2,5 4,11 6,17 11,27 20,51 16,85 -6,64 -11,139 5,211 15,68 58,203 81,248l8 15c14,28 23,45 46,74 16,21 20,40 21,58 0,3 0,6 1,10 2,33 6,101 30,163 24,62 71,112 141,147 50,25 179,81 259,95 9,2 21,3 34,6 39,9 91,21 146,21 0,0 0,0 0,0 55,0 108,-12 147,-21 14,-3 25,-6 34,-8 71,-12 180,-61 259,-100 46,-23 110,-62 141,-143 24,-62 28,-129 30,-161 0,-4 0,-7 1,-9 0,-2 0,-4 1,-5 0,-1 0,-1 0,-2 2,-15 6,-32 20,-50 23,-30 32,-47 47,-76l7 -14c24,-45 67,-180 81,-248 15,-71 11,-147 5,-211 -3,-35 6,-58 16,-85 2,-6 4,-11 6,-16 13,-36 31,-117 39,-229 6,-85 -4,-131 -11,-161zm-1309 1236l0 0c-18,-48 -18,-106 -19,-133 0,-4 4,-8 4,-11 0,0 0,0 0,0 0,-2 -4,-3 -3,-5 22,-141 81,-255 158,-298 30,-17 62,-23 96,-17 -49,97 -116,269 -57,409 -27,47 -37,100 -29,154 1,8 3,16 5,23 -25,-11 -47,-21 -62,-28 -47,-24 -78,-54 -93,-93zm651 180l0 0c-12,2 -25,5 -40,8 -36,8 -81,19 -124,19 0,0 0,0 0,0 -43,0 -87,-11 -123,-19 -15,-3 -28,-8 -40,-10 -6,-1 -12,-2 -19,-4 -30,-23 -51,-56 -56,-92 -6,-37 4,-73 26,-104 49,-58 131,-92 220,-91 87,1 166,36 211,92 22,30 31,66 26,102 -6,37 -27,70 -59,94 -8,2 -15,4 -21,5zm347 -315l0 0c-2,27 -5,85 -24,132 -18,48 -59,74 -93,90 -19,10 -38,19 -56,27 1,-6 3,-12 3,-17 8,-52 -1,-105 -27,-151 30,-73 46,-205 -62,-410 34,-5 65,1 95,17 78,43 140,157 163,298 0,1 0,2 0,3 0,3 0,7 -1,11zm223 -947l0 0c-8,108 -25,178 -34,202 -2,5 -4,10 -6,15 -13,33 -29,73 -23,132 6,56 10,122 -3,180 -15,69 -56,191 -72,223l-7 14c-5,10 -9,17 -13,24 -39,-111 -103,-197 -181,-240 -72,-40 -154,-42 -237,-5 -13,6 -23,17 -28,31 -4,14 -3,28 5,41 31,51 115,206 99,328 -62,-45 -142,-71 -227,-72 -88,-1 -173,25 -238,72 -11,-76 9,-189 93,-328 7,-12 9,-27 5,-41 -4,-14 -15,-25 -28,-31 -84,-36 -167,-34 -239,6 -77,43 -140,129 -179,241 -3,-6 -7,-13 -12,-22l-8 -16c-16,-31 -57,-154 -72,-223 -13,-58 -8,-123 -3,-180 6,-59 -10,-99 -23,-132 -2,-5 -4,-10 -6,-15 -9,-24 -26,-94 -34,-202 -5,-71 3,-106 9,-132 2,-9 4,-18 5,-28 3,-26 10,-39 12,-40 3,-2 8,-10 17,-10 1,0 2,0 3,0 6,0 12,8 19,8 13,3 48,22 69,31 17,7 33,17 46,22 34,13 164,105 185,124 32,29 77,37 125,20 16,-4 29,-15 35,-30 5,-12 15,-34 30,-57 13,29 35,54 69,65 15,5 32,3 44,-6 13,-9 20,-23 20,-38 1,-5 8,-39 48,-86 5,30 17,63 42,94 13,16 35,25 55,18 20,-7 33,-23 34,-44 0,-1 1,-3 2,-6 3,13 8,27 16,39 18,29 46,48 81,54 51,14 95,7 125,-20 19,-18 155,-110 190,-123 13,-5 29,-12 45,-19 23,-10 60,-26 73,-29 7,0 13,0 19,0 11,0 18,0 21,2 3,2 10,6 13,32 1,9 3,18 5,28 6,26 14,61 9,132z"/>
  </g>
 </g>
</svg>
